<svg width="765" height="323" viewBox="0 0 765 323" fill="none" xmlns="http://www.w3.org/2000/svg">
<path d="M131.97 188.034C132.974 182.118 132.472 177.15 130.463 173.132C128.565 169.002 125.663 165.541 121.756 162.751C117.961 159.848 113.663 157.392 108.863 155.383C104.175 153.374 99.4866 151.532 94.7983 149.858C86.2031 146.509 77.7195 142.714 69.3475 138.472C61.0872 134.23 53.5525 129.207 46.7433 123.402C39.9341 117.486 34.6319 110.621 30.8366 102.807C27.0413 94.8819 25.4785 85.617 26.1483 75.0125C26.9297 62.9569 30.3343 52.5199 36.3621 43.7014C42.3899 34.883 50.0362 27.6831 59.3012 22.1018C68.6778 16.4089 78.8358 12.2229 89.7751 9.54385C100.826 6.86483 111.654 5.63695 122.258 5.8602C137.439 6.08345 150.946 9.26479 162.779 15.4042C174.611 21.432 183.876 30.0272 190.573 41.1898C197.383 52.2408 200.564 65.5243 200.117 81.0403H151.56C152.007 73.673 151.058 67.3103 148.714 61.9523C146.481 56.4826 142.853 52.2966 137.83 49.3943C132.919 46.3804 126.612 44.7619 118.909 44.5386C112.324 44.427 105.849 45.4874 99.4866 47.7199C93.2355 49.8408 87.8216 53.1896 83.245 57.7663C78.7799 62.2313 75.9893 68.0359 74.873 75.1799C73.98 80.4264 74.7056 84.9472 77.0497 88.7425C79.5055 92.5378 82.7985 95.7749 86.9286 98.454C91.1704 101.133 95.6355 103.421 100.324 105.319C105.124 107.105 109.421 108.724 113.217 110.175C122.258 113.412 130.965 117.263 139.337 121.728C147.821 126.193 155.3 131.495 161.774 137.635C168.248 143.662 173.216 150.807 176.676 159.067C180.136 167.216 181.532 176.704 180.862 187.531C179.857 199.922 176.508 210.526 170.816 219.345C165.123 228.052 157.755 235.196 148.714 240.777C139.672 246.247 129.793 250.265 119.077 252.833C108.361 255.4 97.4773 256.628 86.4263 256.516C74.3707 256.293 63.0407 254.395 52.4362 250.823C41.8317 247.251 32.5668 242.117 24.6413 235.419C16.7159 228.61 10.5765 220.294 6.22305 210.471C1.98126 200.536 0.0278047 189.206 0.362683 176.481L49.4223 176.648C48.9758 183.457 49.4781 189.429 50.9293 194.564C52.492 199.587 54.9478 203.829 58.2966 207.289C61.757 210.75 65.9988 213.373 71.0219 215.159C76.1567 216.833 82.1287 217.726 88.9379 217.838C95.5238 217.838 101.887 216.833 108.026 214.824C114.165 212.815 119.412 209.633 123.765 205.28C128.119 200.815 130.853 195.066 131.97 188.034Z" fill="#AD0000"/>
<path d="M280.656 71.8312L249.344 253H202.127L233.605 71.8312H280.656ZM238.796 25.4506C238.573 17.86 241.028 11.7764 246.163 7.19971C251.41 2.62304 257.716 0.278898 265.084 0.167272C272.116 0.0556459 278.256 2.17654 283.502 6.52995C288.748 10.7717 291.372 16.5205 291.372 23.7762C291.595 31.3667 289.083 37.4504 283.837 42.027C278.59 46.6037 272.339 48.9478 265.084 49.0595C258.051 49.1711 251.912 47.106 246.665 42.8642C241.531 38.6224 238.907 32.8179 238.796 25.4506Z" fill="#AD0000"/>
<path d="M358.85 113.858L334.738 253H287.688L319.167 71.8312H363.37L358.85 113.858ZM417.956 70.3242L412.095 115.365C409.416 114.919 406.681 114.528 403.891 114.193C401.212 113.858 398.477 113.635 395.686 113.523C389.212 113.412 383.351 114.249 378.105 116.035C372.859 117.821 368.282 120.444 364.375 123.905C360.58 127.253 357.343 131.384 354.664 136.295C352.096 141.207 350.143 146.732 348.803 152.872L339.594 149.858C340.71 141.263 342.552 132.221 345.12 122.733C347.799 113.133 351.482 104.203 356.171 95.9424C360.97 87.5704 367.054 80.817 374.421 75.6823C381.9 70.4358 390.998 67.8684 401.714 67.9801C404.505 67.9801 407.184 68.2033 409.751 68.6498C412.43 69.0963 415.165 69.6544 417.956 70.3242Z" fill="#AD0000"/>
<path d="M506.363 212.145L519.089 130.937C519.647 126.026 519.424 121.449 518.419 117.207C517.414 112.965 515.349 109.617 512.224 107.161C509.21 104.593 504.912 103.198 499.331 102.975C494.308 102.863 489.787 103.756 485.768 105.654C481.861 107.44 478.624 110.063 476.057 113.523C473.489 116.872 471.703 120.891 470.699 125.579L423.481 125.914C424.039 115.868 426.83 107.217 431.853 99.9609C436.988 92.5936 443.462 86.5658 451.276 81.8775C459.09 77.1892 467.573 73.7288 476.727 71.4963C485.992 69.2638 495.033 68.2591 503.852 68.4824C516.465 68.7056 527.684 71.3288 537.507 76.352C547.442 81.3752 555.032 88.5751 560.279 97.9516C565.637 107.217 567.646 118.491 566.306 131.774L553.749 209.466C552.744 215.94 551.962 222.749 551.404 229.894C550.846 236.926 551.851 243.624 554.418 249.986L554.083 253L507.87 253.168C505.749 246.582 504.689 239.828 504.689 232.907C504.801 225.875 505.359 218.954 506.363 212.145ZM524.447 142.658L519.926 169.95L495.982 169.783C491.182 169.895 486.382 170.564 481.582 171.792C476.894 172.908 472.541 174.695 468.522 177.15C464.504 179.494 461.155 182.564 458.476 186.359C455.908 190.155 454.29 194.787 453.62 200.257C453.062 204.164 453.453 207.68 454.792 210.806C456.132 213.819 458.197 216.219 460.987 218.005C463.89 219.791 467.35 220.74 471.369 220.852C477.061 220.963 482.643 219.903 488.112 217.671C493.582 215.326 498.326 212.033 502.345 207.792C506.363 203.55 509.154 198.638 510.717 193.057L520.763 213.987C518.084 220.238 514.679 225.987 510.549 231.233C506.531 236.479 501.898 241.056 496.652 244.963C491.405 248.758 485.657 251.661 479.406 253.67C473.155 255.791 466.457 256.795 459.313 256.684C449.378 256.461 440.225 254.116 431.853 249.651C423.593 245.075 417.007 238.879 412.095 231.066C407.295 223.14 405.119 213.931 405.565 203.438C406.012 191.606 408.97 181.783 414.439 173.969C419.909 166.043 426.941 159.792 435.537 155.216C444.243 150.639 453.676 147.402 463.834 145.504C474.103 143.495 484.261 142.49 494.308 142.49L524.447 142.658Z" fill="#AD0000"/>
<path d="M673.635 322.655L711.309 106.156L722.694 71.8312H764.554L721.02 322.655H673.635ZM590.25 165.43L590.585 161.913C591.925 150.639 594.436 139.421 598.12 128.258C601.915 117.095 607.05 106.938 613.524 97.7842C620.11 88.6309 628.203 81.3752 637.803 76.0171C647.514 70.5475 658.9 68.0359 671.96 68.4824C683.458 68.8173 692.89 71.887 700.258 77.6915C707.625 83.3844 713.374 90.8076 717.504 99.9609C721.634 109.003 724.425 118.714 725.876 129.095C727.439 139.477 727.997 149.411 727.55 158.899L726.713 166.769C724.927 176.927 721.969 187.308 717.839 197.913C713.709 208.517 708.295 218.34 701.597 227.382C694.9 236.312 686.974 243.512 677.821 248.982C668.668 254.34 658.23 256.851 646.51 256.516C634.454 256.181 624.464 253.223 616.538 247.642C608.724 241.949 602.697 234.582 598.455 225.54C594.325 216.498 591.646 206.731 590.418 196.238C589.19 185.745 589.134 175.476 590.25 165.43ZM637.97 161.746L637.635 165.262C637.077 170.174 636.742 175.643 636.631 181.671C636.631 187.587 637.245 193.336 638.473 198.917C639.812 204.499 642.212 209.187 645.673 212.982C649.245 216.666 654.379 218.619 661.077 218.843C669.895 219.177 677.319 217.224 683.346 212.982C689.486 208.74 694.341 203.159 697.914 196.238C701.597 189.206 704.165 181.839 705.616 174.136L708.797 152.034C709.244 146.788 709.244 141.542 708.797 136.295C708.351 130.937 707.123 126.026 705.113 121.561C703.216 116.984 700.313 113.3 696.407 110.51C692.5 107.719 687.365 106.212 681.002 105.989C673.635 105.765 667.328 107.384 662.082 110.844C656.947 114.305 652.705 118.882 649.356 124.574C646.119 130.156 643.552 136.239 641.654 142.825C639.868 149.411 638.64 155.718 637.97 161.746Z" fill="#AD0000"/>
</svg>


