<svg width="860" height="149" viewBox="0 0 860 149" fill="none" xmlns="http://www.w3.org/2000/svg">
<g clip-path="url(#clip0_740_53)">
<rect width="860" height="149" fill="white"/>
<path d="M323.608 91.1574C324.538 85.887 321.948 81.8567 315.836 79.0665L303.014 73.9511C288.133 67.3077 281.069 58.162 281.822 46.514C282.132 41.1108 283.903 36.3275 287.136 32.1644C290.369 28.0012 294.909 24.746 300.755 22.3986C306.601 20.007 312.913 18.8555 319.689 18.9441C329.034 19.1213 336.585 21.9115 342.343 27.3147C348.1 32.6737 350.935 39.8707 350.846 48.9056H331.448C331.669 44.521 330.695 41.1108 328.524 38.6749C326.399 36.239 323.077 34.9767 318.559 34.8882C314.131 34.7996 310.277 35.8182 307 37.9441C303.723 40.0257 301.774 42.9045 301.154 46.5805C300.312 51.408 303.545 55.239 310.853 58.0735L319.622 61.3951L324.671 63.7203C337.737 70.1865 343.848 79.2658 343.007 90.9581C342.608 96.6713 340.77 101.61 337.493 105.773C334.26 109.892 329.831 113.058 324.206 115.273C318.626 117.487 312.47 118.528 305.738 118.395C298.873 118.262 292.761 116.823 287.402 114.077C282.043 111.331 277.969 107.456 275.178 102.451C272.565 97.8007 271.347 92.486 271.524 86.507L290.989 86.5734C290.369 97.0699 295.529 102.407 306.469 102.584C311.207 102.584 315.105 101.543 318.161 99.4615C321.217 97.38 323.033 94.6119 323.608 91.1574ZM370.843 117H351.975L364.465 45.1189H383.332L370.843 117ZM366.657 26.8497C366.569 23.8823 367.543 21.4243 369.58 19.4756C371.618 17.5269 374.076 16.5525 376.954 16.5525C379.789 16.4639 382.247 17.3276 384.329 19.1434C386.41 20.9593 387.495 23.3066 387.584 26.1854C387.672 28.9313 386.742 31.3229 384.794 33.3602C382.889 35.3975 380.387 36.4604 377.287 36.549C374.496 36.6376 372.038 35.7961 369.913 34.0245C367.831 32.253 366.746 29.8613 366.657 26.8497ZM436.014 63.1224C433.445 62.6795 431.341 62.4581 429.703 62.4581C423.015 62.2809 417.723 64.7832 413.825 69.9651L405.521 117H386.787L399.276 45.1189L416.881 45.0525L415.154 53.8217C419.671 47.0455 425.252 43.6574 431.895 43.6574C433.755 43.6574 435.925 43.9674 438.406 44.5874L436.014 63.1224ZM475.276 117C474.7 115.184 474.457 113.014 474.545 110.49C469.142 115.893 463.03 118.506 456.21 118.329C449.921 118.24 444.695 116.203 440.531 112.217C436.413 108.186 434.486 103.226 434.752 97.3357C435.062 89.4965 438.339 83.4954 444.584 79.3322C450.873 75.1247 459.288 73.021 469.829 73.021L478.598 73.1539L479.528 68.8357C479.794 67.3742 479.86 65.979 479.727 64.6504C479.506 62.5688 478.709 60.9522 477.336 59.8007C476.007 58.6049 474.235 57.9849 472.021 57.9406C469.098 57.852 466.618 58.5828 464.58 60.1329C462.543 61.6387 461.237 63.831 460.661 66.7098L441.86 66.7762C442.17 59.9114 445.315 54.3532 451.294 50.1014C457.317 45.8054 464.735 43.7017 473.549 43.7902C481.698 43.9674 488.076 46.4033 492.682 51.0979C497.288 55.7483 499.214 61.7494 498.461 69.1014L492.947 103.514L492.615 107.766C492.527 110.91 492.903 113.568 493.745 115.738L493.678 117H475.276ZM460.86 103.78C466.263 103.957 470.98 101.61 475.01 96.7378L477.336 84.3147L470.825 84.2483C463.916 84.4254 458.933 86.5292 455.878 90.5595C454.77 92.021 454.084 93.8147 453.818 95.9406C453.464 98.3322 453.951 100.237 455.28 101.654C456.653 103.027 458.513 103.735 460.86 103.78ZM540.846 43.7238C548.287 43.901 553.978 46.9126 557.919 52.7588L560.975 45.0525L577.717 45.1189L560.444 144.636H541.577L548.287 110.689C543.282 115.959 537.458 118.506 530.815 118.329C526.341 118.284 522.422 117.111 519.056 114.808C515.69 112.505 513.077 109.183 511.217 104.843C509.401 100.458 508.404 95.6527 508.227 90.4266C508.094 87.6364 508.161 84.9126 508.426 82.2553L508.825 79.3322C509.888 71.8916 511.925 65.3811 514.937 59.8007C517.993 54.2203 521.713 50.1236 526.098 47.5105C530.527 44.8532 535.443 43.5909 540.846 43.7238ZM526.961 90.8252C527.404 98.7086 530.549 102.717 536.395 102.85C541.665 103.027 546.183 100.702 549.947 95.8741L555.395 65.979C553.668 61.683 550.191 59.4464 544.965 59.2693C540.27 59.1364 536.395 60.9965 533.339 64.8497C530.283 68.6585 528.312 73.9954 527.426 80.8602C526.984 85.4219 526.829 88.7436 526.961 90.8252Z" fill="#AD0000"/>
</g>
<defs>
<clipPath id="clip0_740_53">
<rect width="860" height="149" fill="white"/>
</clipPath>
</defs>
</svg>
