<svg width="220" height="192" viewBox="0 0 220 192" fill="none" xmlns="http://www.w3.org/2000/svg">
<g clip-path="url(#clip0_500_388)">
<path d="M5.69995 23.2L13.7 47.5L51.2999 38.6L48.5 11.9L37.2999 26.7L25.1 6.2L23.6 7.7L21.6 30.2L7.69995 22.2L5.69995 23.2Z" fill="#F9B238"/>
<path d="M47.6 16C50.5272 16 52.9001 13.6271 52.9001 10.7C52.9001 7.77289 50.5272 5.4 47.6 5.4C44.6729 5.4 42.3 7.77289 42.3 10.7C42.3 13.6271 44.6729 16 47.6 16Z" fill="#F9B238"/>
<path d="M24.1999 10.6C27.127 10.6 29.4999 8.22711 29.4999 5.3C29.4999 2.37289 27.127 0 24.1999 0C21.2728 0 18.8999 2.37289 18.8999 5.3C18.8999 8.22711 21.2728 10.6 24.1999 10.6Z" fill="#F9B238"/>
<path d="M5.3 25.1C8.22711 25.1 10.6 22.7271 10.6 19.8C10.6 16.8729 8.22711 14.5 5.3 14.5C2.37289 14.5 0 16.8729 0 19.8C0 22.7271 2.37289 25.1 5.3 25.1Z" fill="#F9B238"/>
<path d="M48.5 63.8C52.9 56.9 60.5 49.4 68.3 50C76.1 50.6 83 59.8 81.6 74.9C80.2 90 70.4 95.6 61 97.9C51.6 100.3 49 100.6 49 100.6L50.1 93.3C50.1 93.3 62.2 92.6 65.3 88C68.4 83.4 71.2 74.5 69.7 68.9C68.2 63.2 64.7 61.3 59.3 66.3C53.9 71.3 51.1 77 51.1 77L48.5 63.8Z" fill="#F9B238"/>
<path d="M40.3 81.8C41 81.4 40.1 77.9 37 74.1C34 70.4 31.5 61.6 34.7 60C37.8 58.3 44.3 66.6 45.2 76.3C46.1 86 45.7 98.4 40.9 109.2C36.1 120 31.8 122.6 27.6 120.7C23.4 118.8 20.1 108.3 22.5 98.9C24.9 89.5 32.5 85.2 34.9 90.5C37.3 95.9 38.7 101.6 41.2 101.3C43.6 101 45.7 93.6 42 88C38.3 82.4 28.9 74.5 17.7 83.1C6.50003 91.7 5.70002 122 19.4 129C33.1 135.9 45.7 126.4 49.8 112.9C53.9 99.4 54 82 53.7 73.5C53.4 65 49.4 48.8 36.1 47.4C22.8 46 20.6 58.5 25.1 67C29.6 75.5 37.8 82.2 40.3 81.8Z" fill="#F9B238"/>
<path d="M86.2999 115C86.2999 115 87.3999 96.2 87.4999 93.5C87.5999 90.8 93.7999 82.5 96.8999 85.1C99.9999 87.8 98.1999 89.5 96.8999 91.4C95.5999 93.3 88.7999 100.3 88.7999 100.3C88.7999 100.3 99.3999 115.1 100.6 116.4C101.8 117.7 105.9 117.7 109.9 112.8C100.3 104.7 96.0999 101.4 96.0999 101.4C96.0999 101.4 107.2 95.3 107.2 85.9C107.3 76.6 98.1999 70.7 88.1999 79.7C83.7999 75.1 83.7999 75.1 83.7999 75.1C83.7999 75.1 81.3999 78.3 79.8999 85.4C78.3999 92.5 77.1999 103 78.2999 107.2C79.2999 111.3 86.2999 115 86.2999 115Z" fill="#F9B238"/>
<path d="M119.5 79.1C119.5 79.1 115.7 93 116.5 99.2C117.3 105.4 118 110.9 118 110.9C118 110.9 113.1 111.7 111.3 110.9C109.5 110.1 107.5 107.8 108 96.1C108.4 84.4 109.8 78.4 113.9 78.2C118 78 119.5 79.1 119.5 79.1Z" fill="#F9B238"/>
<path d="M113.1 75C116.082 75 118.5 72.5823 118.5 69.6C118.5 66.6177 116.082 64.2 113.1 64.2C110.118 64.2 107.7 66.6177 107.7 69.6C107.7 72.5823 110.118 75 113.1 75Z" fill="#F9B238"/>
<path d="M123.4 75.8C123.4 75.8 124.9 90.2 122.5 95C120.1 99.8 117.1 104.6 120.1 110.5C123 116.5 131.8 114.4 132.4 113.3C128.5 106.6 128.5 101.9 131.4 97.9C134.3 93.9 139.7 86.2 141.2 87.6C142.6 89.1 140.8 92.7 139.1 95.7C137.4 98.7 135.3 104.2 136.2 109.3C137.1 114.4 140.8 118.2 145.7 117.1C150.6 116 151.2 114.8 151.2 114.8C151.2 114.8 145.6 112.4 147.3 103C149 93.5 150.5 87.3 149.5 82.3C148.5 77.3 142.2 77.8 138.8 81.4C135.4 84.9 134.4 86.8 134.4 86.8C134.4 86.8 135.8 73.6 123.4 75.8Z" fill="#F9B238"/>
<path d="M182.3 92.2C187.3 95.5 195.6 95.2 199.4 90.5C203.2 85.8 202.1 77.7 198.5 75C194.9 72.2 187.2 70.3 181.8 80.9C176.4 91.5 173.1 105.9 184.6 107.6C196.2 109.3 201.5 98.7 200.5 96.8C199.5 94.9 198.4 95.4 196.7 98.1C195 100.8 188 102.9 185.9 101.3C183.9 99.7 184.3 92.8 188.5 87C192.7 81.2 195.1 80.3 194.9 83.8C194.8 87.4 192.3 88.7 189.7 88.7C187.1 88.7 185.1 87.8 185.1 87.8L182.3 92.2Z" fill="#F9B238"/>
<path d="M170.2 90.5C173.7 90.9 178.3 84.9 175.6 78.1C172.9 71.3 166.6 68.8 159.3 73.7C152 78.6 149.2 87.6 151.1 97.3C153 107.1 160.7 109.4 167.2 107.3C173.7 105.2 177.8 97.9 175.3 96.2C172.8 94.5 169.2 99.1 166.3 99.8C163.4 100.5 159.2 98.5 159.4 91.5C159.6 84.5 162.5 79.1 165.5 79.2C168.5 79.3 168.2 82.1 166.9 84.8C165.6 87.5 166.6 90.1 170.2 90.5Z" fill="#F9B238"/>
<path d="M216.2 80.4C213.1 82.7 210.8 84.3 214.2 87.4C217.6 90.5 221.3 93.9 217.8 100.9C214.3 107.9 209.4 111.7 204.3 110.7C199.2 109.7 199.9 103.5 203.4 101.8C206.9 100.1 210.1 98.5 209.5 96.2C208.9 93.9 202.6 91.3 203.3 83.6C204 75.9 211.5 72.1 213.5 72.4C215.5 72.7 218.2 75.7 218.2 77.3C218.4 78.9 216.2 80.4 216.2 80.4Z" fill="#F9B238"/>
<path d="M96.0999 51.6C93.9999 51.6 88.6999 50.4 90.4999 42.4C92.2999 34.4 96.8999 24.1 96.5999 19.4C96.2999 14.7 95.5999 9.8 87.9999 11.9C80.3999 14 77.1999 21.5 79.2999 24.8C81.3999 28.1 85.0999 27.1 86.0999 24.3C86.9999 21.6 86.2999 20.2 84.9999 21C83.5999 21.8 82.4999 21.8 82.3999 20.5C82.2999 19.2 87.4999 14.2 89.7999 14.9C92.0999 15.6 88.4999 22.9 85.7999 30.2C82.9999 37.6 81.7999 50 87.1999 52.7C92.5999 55.4 96.0999 52.5 96.0999 51.6Z" fill="#F9B238"/>
<path d="M105.6 27.2C105.4 27.2 105.2 32.2 103.5 36.7C101.8 41.2 101.2 49.4 103.9 50C106.6 50.6 108.3 49.3 108.4 48.4C106.3 47.1 108 39.8 110.3 37C112.5 34.2 114.2 32.9 114.7 33.4C115.2 33.9 112.3 38.5 111.2 41.4C110.1 44.2 110.6 50.5 114.2 50.2C117.8 49.9 117.8 48.5 117.8 48.5C117.8 48.5 116.3 42.7 118.4 39.4C120.5 36.1 122.1 33.3 123.4 33.6C124.7 33.8 121.2 38.3 120.3 43.3C119.4 48.3 121.7 50.5 124.1 50.2C126.5 50 132 42.7 133.3 39.7C134.6 36.7 133.2 36.3 132.7 36.1C132.1 35.9 131 36.4 130 38.5C129 40.6 127.1 44 126.4 43.6C125.7 43.3 127.4 39.2 129 35.4C130.6 31.6 131 30.9 129.7 29.9C128.4 28.9 126.7 27.2 125.1 28.6C123.5 30 122 32.9 121.3 32.9C120.6 32.9 119.1 27.7 117.2 28.3C115.3 29 113.2 31.3 112 31.8C110.7 32.2 111.4 26.3 105.6 27.2Z" fill="#F9B238"/>
<path d="M101 22.4C100.1 22.5 99.2 19.4 99.4 17.5C99.6 15.6 103.6 15.7 103.4 17.5C103.3 19.2 102.7 22.3 101 22.4Z" fill="#F9B238"/>
<path d="M183.3 36.9C185.2 37.3 188.3 35.7 189.5 33.5C190.7 31.3 190.2 30.2 189 30.3C187.8 30.4 185.8 32.8 184.1 37.9C182.4 43 183.5 46.2 186.6 45.2C189.7 44.2 195.7 38.5 195.7 38.5C195.7 38.5 196.6 41.2 192.9 44.7C189.2 48.2 187.4 49.9 183.3 49.6C179.3 49.3 176.5 43 180.6 35.6C184.7 28.2 186 27.3 188.8 27.4C191.6 27.4 194.5 29.9 192.8 34.1C191.1 38.3 185.5 41.9 181.9 40.6C181.7 38.3 183.3 36.9 183.3 36.9Z" fill="#F9B238"/>
<path d="M202.6 28.3C201.7 28.4 200.8 24.9 201 22.8C201.2 20.7 205.2 20.8 205.1 22.8C205 24.8 204.2 28.2 202.6 28.3Z" fill="#F9B238"/>
<path d="M200.2 28.3L202.6 30.3C203 30.6 203.1 31.1 202.9 31.6C202 33.8 199.4 40.1 199.6 42.6C199.8 44.5 200.9 42.9 201.7 41.6C201.9 41.3 202.4 41.7 202.4 42C201.8 44.6 200.3 48.9 197.7 48.8C194 48.6 193.7 43.4 196.1 36.4C197.5 32.4 198.3 30.1 198.7 28.9C198.9 28.1 199.7 27.9 200.2 28.3Z" fill="#F9B238"/>
<path d="M209 34C209 34 210.1 30.9 210.1 30.2C210.1 29.5 207.4 27 206.8 27.5C206.2 28 205.1 33.7 203.6 36.7C202.1 39.7 200.5 46.5 202.8 48.7C205.1 50.9 207.4 48.9 207.4 47.8C207.4 46.7 206.1 43.7 207.8 39.9C209.5 36 213 32.4 213.6 33C214.3 33.6 213.7 36.5 215.8 37.7C217.9 38.9 218.7 37.2 217.9 36.1C217.1 35 216.4 34.4 217.1 32.6C217.8 30.8 218.3 29.3 217.6 28.4C216.8 27.5 214.4 26.8 213.8 28C213.3 29.1 209 34 209 34Z" fill="#F9B238"/>
<path d="M180.1 42.7C177.4 45.9 175.4 49.6 172.6 49C169.8 48.4 170.1 41 172.1 37.2C174.1 33.4 173.8 32.5 172 33.8C170.2 35.2 164.9 43.1 164.7 40.7C164.5 38.3 166 36.7 168.6 34.6C171.1 32.5 174.5 27.9 176.1 28.2C177.7 28.5 180.6 30.8 179.5 32.3C178.4 33.8 174.5 43.9 176.2 43.6C177.9 43.3 179.4 38.2 180.2 38.4C181 38.6 180.1 42.7 180.1 42.7Z" fill="#F9B238"/>
<path d="M166.8 48.4C166.8 48.4 159.6 52.3 161.1 44C162.6 35.7 169.6 16.8 169.6 16.8L173.6 17.3C173.6 17.3 173 21.7 171.6 25.1C170.2 28.5 164.4 45.9 166.8 48.4Z" fill="#F9B238"/>
<path d="M166 18.8C166 18.8 164.2 21 162.5 28.6C160.9 36.2 158 46.4 153.8 49.6C149.7 52.8 142.5 51.4 141.9 46.6C148.8 47.1 151.2 45.7 153.7 36.3C156.3 26.8 156.8 15.7 166 18.8Z" fill="#F9B238"/>
<path d="M153.8 21.8C153.8 21.8 155.6 26.8 152.4 27.9C149.1 28.9 146.4 26.4 146.7 22.9C147 19.3 149.6 14.9 153.5 13.3C157.4 11.7 164.6 12.3 167.8 13.3C171 14.3 180.4 14.4 181.6 11.7C183.9 16.3 179 21.8 172.8 20.4C166.5 19 161.7 14.2 156.5 16C151.3 17.8 149.4 21.8 150.9 23C152.5 24.1 153.8 21.8 153.8 21.8Z" fill="#F9B238"/>
<path d="M70.8999 138.3C66.7999 141.8 66.7999 144 68.8999 144.4C70.9999 144.9 81.2999 136.7 83.9999 132.3C86.6999 127.8 87.1999 123 82.3999 122.5C77.5999 122 76.0999 123.8 76.0999 123.8C76.0999 123.8 73.2999 118.6 64.7999 124.5C56.2999 130.3 49.6999 142.1 53.0999 149.3C56.4999 156.5 62.0999 153.8 65.1999 154.6C68.3999 155.4 75.1999 160.4 66.6999 169.2C58.1999 178 52.2999 179.1 49.5999 178.1C46.8999 177.1 46.5999 173.1 53.7999 167.9C60.8999 162.7 83.6999 153.4 90.8999 152.2C97.9999 151 101.8 149 97.6999 148.9C93.5999 148.7 87.3999 148.7 77.6999 152.4C68.0999 156.1 51.6999 163.7 46.2999 169C40.8999 174.3 38.2999 179.5 46.8999 181.6C55.4999 183.7 69.6999 179.6 75.5999 170.5C81.4999 161.5 79.4999 152.4 73.2999 150.9C67.0999 149.4 58.6999 150.8 60.6999 143.8C62.6999 136.8 72.1999 125.4 75.3999 126.4C78.4999 127.4 78.9999 131.1 70.8999 138.3Z" fill="#F9B238"/>
<path d="M98 147.8C91.5 147.6 86.1 153.5 84.3 157.9C82.5 162.3 80.1 176 87.9 176.6C95.7 177.2 97.7 171.9 100.4 167.5C104.5 161.3 104.1 157.4 104.9 154.6C105.6 151.8 104.5 148 98 147.8ZM88 166.1C88 166.1 90.7 169.6 92.9 169.6C90.4 173.1 86.4 174.1 88 166.1ZM94.4 166.5C94.4 166.5 89.4 165.6 90.5 161.5C91.6 157.5 95.2 152.3 97 153C98.3 153.4 97.9 159.7 94.4 166.5Z" fill="#F9B238"/>
<path d="M113.6 151.9C110 156.9 102.9 162.8 98.7999 164.7C95.1999 166.8 93.0999 170.6 96.7999 169.6C100.5 168.7 107.3 164.2 111.2 158.9C115.1 153.6 113.6 151.7 113.6 151.7" fill="#F9B238"/>
<path d="M126.7 141.6C126.7 141.6 121.1 151.4 115.5 164.5C109.9 177.6 106.6 191.5 106.6 191.5C106.6 191.5 100.7 193.5 101.6 186.1C102.5 178.7 109.6 156.3 113.6 149.2C117.7 141.9 115.5 140.1 126.7 141.6Z" fill="#F9B238"/>
<path d="M119.8 150.2C122.5 147.3 128.5 145.7 131.7 147.3C134.9 148.9 130.9 161.5 130.9 161.5C130.9 161.5 137.1 155.6 138.9 153.6C140.7 151.6 140.2 156.6 134.4 162.1C128.6 167.6 127.6 169 124.7 172.3C121.7 175.6 118.6 176.1 115.7 175.7C112.8 175.3 111.1 172 111.1 172L112.6 168.3C112.6 168.3 114 173.2 117 171.8C120 170.4 123.6 162.1 124.4 157C125.2 151.9 123 150 119.8 150.2Z" fill="#F9B238"/>
<path d="M156 133.9C156 133.9 146.1 146.8 141.5 160.8C147.8 152 148.8 149.9 152.4 149.5C155.9 149.2 158.1 150 156.8 152.4C155.5 154.8 152.6 158.4 150.2 166.9C153.9 163.7 159.9 155.1 160.4 154.6C160.9 154.1 161.5 155.8 157.8 162C154.1 168.2 150.8 177.2 145.8 176.6C140.8 176 147.6 163.6 146.1 159.6C144.7 160.3 141.4 165.1 138.9 170.6C136.4 176.1 136.8 175.5 133.9 175.9C131 176.3 130.8 171.6 133.6 163.1C136.4 154.6 142.5 138.3 145.4 134.1C152.6 133.5 156 133.9 156 133.9Z" fill="#F9B238"/>
<path d="M199 154.8C198.2 155.8 190.4 167.5 188.8 167.2C187.2 166.9 192.2 158.9 194.8 155.4C197.4 151.9 192.8 150.9 189.1 153.1C189.8 151.4 188.2 147.4 182.8 147.4C177.4 147.4 174.6 151.9 171.4 161.8C168.2 171.7 171.6 177.5 175.1 176.4C178.5 175.3 183.2 168.5 183.5 168C183.4 168.4 182.1 173 182.9 174.4C183.7 175.8 187.6 176.1 189.7 173.5C191.8 171 199 160 201.3 156.6C201.9 155.1 199.8 153.8 199 154.8ZM184.9 161.2C184.9 161.2 179.4 168.7 178.1 169.6C176.9 170.6 175.5 167.1 177.8 162.2C180 157.3 183.8 150.9 185.5 151.5C187.2 152.2 184.9 161.2 184.9 161.2Z" fill="#F9B238"/>
<path d="M172.4 163.3C169.1 167.4 163.5 177 159.4 177C155.3 177 154.3 168.2 157.7 158.1C161.1 148.1 162.8 145.8 162.8 145.8C162.8 145.8 171.4 145.5 171.2 147.3C169.6 150.2 163.3 158.9 162.3 164.9C161.3 170.9 163.9 168 166.1 165.2C168.3 162.4 174.2 155.6 174.9 157.1C175.5 158.6 172.4 163.3 172.4 163.3Z" fill="#F9B238"/>
<path d="M172.9 134.8C171.6 133.6 170 133.6 169.1 134.3C168.2 135.1 165 138.4 165.4 140.6C165.8 142.8 168.7 144 169.9 143.7C171.1 143.4 174.8 138.4 174.8 137.3C174.8 136.2 172.9 134.8 172.9 134.8Z" fill="#F9B238"/>
</g>
<defs>
<clipPath id="clip0_500_388">
<rect width="219.2" height="191.7" fill="white"/>
</clipPath>
</defs>
</svg>
