<svg width="227" height="296" viewBox="0 0 227 296" fill="none" xmlns="http://www.w3.org/2000/svg">
<path d="M208.4 228.8H20V293.6H208.4V228.8Z" fill="black"/>
<path d="M96.1999 124.7C96.1999 124.7 114.1 111.7 116.5 99.7C122.2 114.2 127.8 122.9 136.5 122.9C145.2 122.8 153.9 117.1 157.2 117.3C160.5 117.5 162.3 119.3 162.1 122.1C161.9 124.9 161.9 128.1 164.8 127.3C167.7 126.5 167.2 123.1 167.5 122.3C167.9 121.5 169.4 123.9 171.9 120.8C174.3 117.7 167.4 110 165.3 107.9C163.3 105.8 146 106.8 143.8 105.3C141.6 103.8 139.5 97.7 139.7 95C139.9 92.4 146.4 88.5 150.7 88.7C155 88.9 177.7 93.2 196.3 93.5C214.9 93.8 224 86.9 225.7 83.9C227.4 81 222.3 80.1 211.9 81.9C201.5 83.8 172.9 77.5 154.8 69.8C136.8 62.1 129.8 54.1 123.1 48.7C116.4 43.3 106.5 43.6 97.9999 43C89.3999 42.4 81.5999 45.2 77.5999 30.6C73.5999 16 62.6999 0.499978 56.7999 0.099978C50.8999 -0.300022 49.5999 1.79998 46.4999 1.79998C43.3999 1.79998 41.9999 -0.700022 37.6999 1.99998C33.3999 4.69998 26.6999 13.7 17.3999 16.8C8.09988 19.9 -1.10011 26.3 1.09989 35C3.29989 43.7 7.79987 43.5 12.7999 43C17.7999 42.5 29.2999 36.9 31.8999 36.8C34.4999 36.7 34.8999 40.2 33.0999 41.6C31.2999 43 12.2999 52.9 11.3999 54.9C10.4999 56.9 15.1999 64.4 17.1999 64.3C19.1999 64.2 39.5999 52 42.2999 52C44.9999 51.9 52.6999 57.3 52.4999 60C52.2999 62.7 43.2999 69.4 39.4999 69.9C35.5999 70.4 24.9999 72.7 24.7999 76.7C24.5999 80.7 33.2999 79.7 38.0999 79.3C42.8999 78.9 54.8999 75.2 56.6999 74.9C58.4999 74.6 59.6999 79.5 58.5999 80.1C57.4999 80.7 46.9999 94.2 43.7999 98.2C40.5999 102.2 39.6999 104.7 41.5999 106C43.5999 107.3 43.7999 108.4 49.6999 102.7C55.5999 97 63.6999 89.6 63.6999 89.6C63.6999 89.6 73.2999 101.9 81.5999 102C73.5999 108.5 73.7999 125.8 81.5999 131.2C89.3999 136.6 97.5999 141.5 96.7999 142.9C95.9999 144.3 91.8999 147.8 94.2999 150C96.7999 152.2 98.8999 154.6 102.5 153C106.1 151.4 109.9 146.2 107.2 141.9C104.5 137.6 96.1999 124.7 96.1999 124.7Z" fill="black"/>
<path d="M29 159.3H44L50.7 205.7H50.9L57.6 159.3H72.5V224.1H62.6V175H62.4L54.8 224.1H46L38.4 175H38.2V224.1H29V159.3Z" fill="black"/>
<path d="M88.4001 159.3H102.6L113.5 224.1H103L101.1 211.2V211.4H89.2001L87.3001 224.1H77.6001L88.4001 159.3ZM99.8001 202.6L95.1001 170.5H94.9001L90.3001 202.6H99.8001Z" fill="black"/>
<path d="M118.4 159.3H133.3L140 205.7H140.2L146.9 159.3H161.8V224.1H151.9V175H151.7L144.1 224.1H135.3L127.7 175H127.5V224.1H118.4V159.3Z" fill="black"/>
<path d="M177.7 159.3H191.9L202.8 224.1H192.3L190.4 211.2V211.4H178.5L176.6 224.1H166.9L177.7 159.3ZM189.2 202.6L184.5 170.5H184.3L179.7 202.6H189.2Z" fill="black"/>
<path d="M28 274V271.2H35.8V274.5C35.8 278 37.4 279.2 40.1 279.2C42.7 279.2 44.4 277.9 44.4 274.3C44.4 270.3 42.7 267.7 37.4 263.3C30.5 257.7 28.3 253.7 28.3 248.1C28.3 240.4 32.6 236 40.6 236C48.6 236 52.6 240.5 52.6 248.2V250.2H44.8V247.7C44.8 244.2 43.3 242.9 40.7 242.9C38.1 242.9 36.6 244.2 36.6 247.6C36.6 251.1 38.3 253.7 43.7 258.1C50.6 263.7 52.8 267.6 52.8 273.7C52.8 281.6 48.4 286.1 40.4 286.1C32.4 286.1 28 281.8 28 274Z" fill="white"/>
<path d="M63.5 236.9H74.7L83.2 285.6H75L73.5 275.9V276H64.1L62.6 285.5H55L63.5 236.9ZM72.5 269.4L68.8 245.3H68.7L65.1 269.4H72.5Z" fill="white"/>
<path d="M86.7998 274V236.9H94.9998V274.6C94.9998 278.1 96.5998 279.3 99.1998 279.3C101.8 279.3 103.4 278 103.4 274.6V236.9H111.3V274C111.3 281.8 107.1 286.2 98.9998 286.2C90.9998 286.2 86.7998 281.8 86.7998 274Z" fill="white"/>
<path d="M117.2 236.9H129.4C137.9 236.9 141.6 240.6 141.6 248.1V251.1C141.6 256.1 139.9 259.3 136.2 260.7V260.8C140.3 262 141.7 265.6 141.7 271.1V279.7C141.7 282.1 141.8 283.8 142.6 285.6H134.2C133.7 284.3 133.4 283.6 133.4 279.6V270.7C133.4 266.2 132 264.7 128.2 264.7H125.4V285.6H117.2V236.9ZM128.5 257.7C131.6 257.7 133.5 256.4 133.5 252.6V248.8C133.5 245.3 132.2 243.8 129.3 243.8H125.6V257.7H128.5Z" fill="white"/>
<path d="M147.1 274V236.9H155.3V274.6C155.3 278.1 156.9 279.3 159.5 279.3C162.1 279.3 163.7 278 163.7 274.6V236.9H171.6V274C171.6 281.8 167.4 286.2 159.3 286.2C151.2 286.2 147.1 281.8 147.1 274Z" fill="white"/>
<path d="M176.2 274V271.2H184V274.5C184 278 185.6 279.2 188.3 279.2C191 279.2 192.6 277.9 192.6 274.3C192.6 270.3 191 267.7 185.6 263.3C178.7 257.7 176.4 253.7 176.4 248.1C176.4 240.4 180.7 236 188.7 236C196.7 236 200.7 240.5 200.7 248.2V250.2H192.9V247.7C192.9 244.2 191.4 242.9 188.8 242.9C186.2 242.9 184.7 244.2 184.7 247.6C184.7 251.1 186.4 253.7 191.8 258.1C198.7 263.7 200.9 267.6 200.9 273.7C200.9 281.6 196.6 286.1 188.5 286.1C180.4 286.1 176.2 281.8 176.2 274Z" fill="white"/>
<path d="M208.5 296H20.0001C18.7001 296 17.6001 294.9 17.6001 293.6V76.8C17.6001 75.5 18.7001 74.4 20.0001 74.4C21.3001 74.4 22.4001 75.5 22.4001 76.8V291.2H206V101.7C206 100.4 207.1 99.3 208.4 99.3C209.7 99.3 210.8 100.4 210.8 101.7V293.6C210.9 294.9 209.8 296 208.5 296Z" fill="black"/>
<path d="M208.5 77.1C207.2 77.1 206.1 76 206.1 74.7V4.99995H77.9C76.6 4.99995 75.5 3.89995 75.5 2.59995C75.5 1.29995 76.6 0.199951 77.9 0.199951H208.5C209.8 0.199951 210.9 1.29995 210.9 2.59995V74.7C210.9 76 209.8 77.1 208.5 77.1Z" fill="black"/>
</svg>
