<svg width="226" height="296" viewBox="0 0 226 296" fill="none" xmlns="http://www.w3.org/2000/svg">
<path d="M207.7 228.8H19.3003V293.6H207.7V228.8Z" fill="black"/>
<path d="M95.4002 124.7C95.4002 124.7 113.3 111.7 115.7 99.7C121.4 114.2 127 122.9 135.7 122.9C144.4 122.9 153.1 117.1 156.4 117.3C159.7 117.5 161.5 119.3 161.3 122.1C161.1 124.9 161.1 128.1 164 127.3C166.9 126.5 166.4 123.1 166.7 122.3C167.1 121.5 168.6 123.9 171.1 120.8C173.5 117.7 166.6 110 164.5 107.9C162.5 105.8 145.2 106.8 143 105.3C140.8 103.8 138.7 97.7 138.9 95C139.1 92.4 145.6 88.5 149.9 88.7C154.2 88.9 176.9 93.2 195.5 93.5C214.1 93.8 223.2 86.9 224.9 83.9C226.6 81 221.5 80.1 211.1 81.9C200.7 83.8 172.1 77.5 154 69.8C135.9 62.1 129 54.1 122.3 48.7C115.7 43.3 105.5 43.5 96.9002 43C88.3002 42.4 80.5002 45.2 76.5002 30.6C72.5002 16 62.0001 0.499978 56.1001 0.099978C50.2001 -0.300022 48.9001 1.79998 45.8001 1.79998C42.7001 1.79998 41.3001 -0.700022 37.0001 1.99998C32.7001 4.69998 26.0001 13.7 16.7001 16.8C7.40015 19.9 -1.89985 26.2 0.300149 34.9C2.50015 43.6 7.00015 43.4 12.0001 42.9C17.0001 42.4 28.5001 36.8 31.1001 36.7C33.7001 36.6 34.1001 40.1 32.3001 41.5C30.5001 42.9 11.5001 52.8 10.6001 54.8C9.70015 56.8 14.4001 64.3 16.4001 64.2C18.4001 64.1 38.8001 52 41.5001 52C44.2001 51.9 51.9002 57.3 51.7001 60C51.5001 62.7 42.5001 69.4 38.7001 69.9C34.8001 70.4 24.2001 72.7 24.0001 76.7C23.8001 80.7 32.5001 79.7 37.3001 79.3C42.1001 78.9 54.1002 75.2 55.9002 74.9C57.7001 74.6 58.9001 79.5 57.8001 80.1C56.7001 80.7 46.2001 94.2 43.0001 98.2C39.8001 102.2 38.9001 104.7 40.8001 106C42.8001 107.3 43.0001 108.4 48.9002 102.7C54.8002 97 62.9002 89.6 62.9002 89.6C62.9002 89.6 72.5002 101.9 80.8002 102C72.8002 108.5 73.0002 125.8 80.8002 131.2C88.6002 136.6 96.8002 141.5 96.0002 142.9C95.2001 144.3 91.1002 147.8 93.5002 150C96.0002 152.2 98.1002 154.6 101.7 153C105.3 151.4 109.1 146.2 106.4 141.9C103.7 137.6 95.4002 124.7 95.4002 124.7Z" fill="black"/>
<path d="M29.2002 159.3H48.3002C61.3002 159.3 67.7002 165 67.7002 175.3V181.7C67.7002 192.1 61.3002 197.7 48.3002 197.7H42.2002V224.1H29.2002V159.3ZM48.4002 188.4C52.5002 188.4 54.8002 186.9 54.8002 182.3V174.6C54.8002 170 52.6002 168.5 48.4002 168.5H42.3002V188.4H48.4002Z" fill="black"/>
<path d="M80.7003 159.3H98.3003L111.8 224.1H98.8003L96.4003 211.2V211.4H81.7003L79.3003 224.1H67.3003L80.7003 159.3ZM94.9003 202.6L89.1003 170.5H88.9003L83.2003 202.6H94.9003Z" fill="black"/>
<path d="M118.1 159.3H137.2C150.2 159.3 156.6 165 156.6 175.3V181.7C156.6 192.1 150.2 197.7 137.2 197.7H131V224.1H118V159.3H118.1ZM137.2 188.4C141.3 188.4 143.6 186.9 143.6 182.3V174.6C143.6 170 141.4 168.5 137.2 168.5H131V188.4H137.2Z" fill="black"/>
<path d="M169.5 159.3H187.1L200.6 224.1H187.6L185.2 211.2V211.4H170.4L168 224.1H156L169.5 159.3ZM183.7 202.6L177.9 170.5H177.7L172 202.6H183.7Z" fill="black"/>
<path d="M27.3003 274V271.2H35.1003V274.5C35.1003 278 36.7003 279.2 39.4003 279.2C42.0003 279.2 43.7003 277.9 43.7003 274.3C43.7003 270.3 42.1003 267.7 36.7003 263.3C29.8003 257.7 27.6003 253.7 27.6003 248.1C27.6003 240.4 31.9003 236 39.9003 236C47.9003 236 51.9003 240.5 51.9003 248.2V250.2H44.1003V247.7C44.1003 244.2 42.6003 242.9 40.0003 242.9C37.4003 242.9 35.9003 244.2 35.9003 247.6C35.9003 251.1 37.6003 253.7 43.0003 258.1C49.9003 263.7 52.1003 267.6 52.1003 273.7C52.1003 281.6 47.7003 286.1 39.7003 286.1C31.7003 286.1 27.3003 281.8 27.3003 274Z" fill="white"/>
<path d="M62.8003 236.9H74.0003L82.5003 285.6H74.3003L72.8003 275.9V276H63.4003L61.9003 285.5H54.3003L62.8003 236.9ZM71.8003 269.4L68.1003 245.3H68.0003L64.4003 269.4H71.8003Z" fill="white"/>
<path d="M86.0005 274V236.9H94.2005V274.6C94.2005 278.1 95.8005 279.3 98.4005 279.3C101 279.3 102.6 278 102.6 274.6V236.9H110.5V274C110.5 281.8 106.3 286.2 98.2005 286.2C90.1005 286.2 86.0005 281.8 86.0005 274Z" fill="white"/>
<path d="M116.5 236.9H128.7C137.2 236.9 140.9 240.6 140.9 248.1V251.1C140.9 256.1 139.2 259.3 135.5 260.7V260.8C139.6 262 141 265.6 141 271.1V279.7C141 282.1 141.1 283.8 141.9 285.6H133.5C133.1 284.3 132.7 283.6 132.7 279.6V270.7C132.7 266.2 131.3 264.7 127.5 264.7H124.7V285.6H116.5V236.9ZM127.7 257.7C130.8 257.7 132.7 256.4 132.7 252.6V248.8C132.7 245.3 131.4 243.8 128.5 243.8H124.8V257.7H127.7Z" fill="white"/>
<path d="M146.4 274V236.9H154.6V274.6C154.6 278.1 156.2 279.3 158.8 279.3C161.4 279.3 163 278 163 274.6V236.9H170.9V274C170.9 281.8 166.7 286.2 158.6 286.2C150.5 286.2 146.4 281.8 146.4 274Z" fill="white"/>
<path d="M175.4 274V271.2H183.2V274.5C183.2 278 184.8 279.2 187.5 279.2C190.1 279.2 191.8 277.9 191.8 274.3C191.8 270.3 190.1 267.7 184.8 263.3C177.9 257.7 175.7 253.7 175.7 248.1C175.7 240.4 180 236 188 236C196 236 200 240.5 200 248.2V250.2H192.2V247.7C192.2 244.2 190.7 242.9 188.1 242.9C185.5 242.9 184 244.2 184 247.6C184 251.1 185.7 253.7 191.1 258.1C198 263.7 200.2 267.6 200.2 273.7C200.2 281.6 195.8 286.1 187.8 286.1C179.8 286.1 175.4 281.8 175.4 274Z" fill="white"/>
<path d="M207.7 296H19.3004C18.0004 296 16.9004 294.9 16.9004 293.6V76.8C16.9004 75.5 18.0004 74.4 19.3004 74.4C20.6004 74.4 21.7004 75.5 21.7004 76.8V291.2H205.3V103.6C205.3 102.3 206.4 101.2 207.7 101.2C209 101.2 210.1 102.3 210.1 103.6V293.7C210.1 294.9 209 296 207.7 296Z" fill="black"/>
<path d="M207.7 77.1C206.4 77.1 205.3 76 205.3 74.7V4.99995H77.1002C75.8002 4.99995 74.7002 3.89995 74.7002 2.59995C74.7002 1.29995 75.8002 0.199951 77.1002 0.199951H207.7C209 0.199951 210.1 1.29995 210.1 2.59995V74.7C210.1 76 209 77.1 207.7 77.1Z" fill="black"/>
</svg>
