<svg width="250" height="250" viewBox="0 0 250 250" fill="none" xmlns="http://www.w3.org/2000/svg">
<rect width="250" height="250" fill="white"/>
<path d="M49.801 139.638C50.4618 135.893 48.6209 133.03 44.2782 131.047L35.168 127.412C24.5945 122.692 19.5752 116.194 20.1102 107.917C20.3305 104.078 21.5892 100.68 23.8865 97.7216C26.1837 94.7635 29.4092 92.4505 33.5631 90.7827C37.717 89.0834 42.2013 88.2652 47.016 88.3281C53.6559 88.454 59.0214 90.4365 63.1123 94.2757C67.2032 98.0834 69.2172 103.197 69.1543 109.617H55.371C55.5283 106.501 54.836 104.078 53.294 102.347C51.7835 100.617 49.4234 99.7198 46.2136 99.6569C43.0667 99.5939 40.3289 100.318 38.0002 101.828C35.6715 103.307 34.2869 105.353 33.8463 107.965C33.2484 111.395 35.5456 114.117 40.738 116.131L46.9688 118.491L50.5563 120.143C59.8395 124.738 64.1822 131.189 63.5843 139.496C63.3011 143.556 61.9952 147.065 59.6665 150.023C57.3692 152.949 54.2224 155.199 50.2258 156.773C46.2608 158.346 41.8866 159.086 37.1034 158.991C32.2257 158.897 27.883 157.874 24.0753 155.923C20.2676 153.972 17.3724 151.218 15.3899 147.663C13.5332 144.358 12.6678 140.582 12.7937 136.334L26.6242 136.381C26.1837 143.839 29.8498 147.631 37.6226 147.757C40.9897 147.757 43.759 147.017 45.9303 145.538C48.1017 144.059 49.3919 142.093 49.801 139.638ZM83.3625 158H69.9568L78.831 106.926H92.2367L83.3625 158ZM80.3887 93.9453C80.3257 91.8369 81.018 90.0904 82.4656 88.7057C83.9132 87.3211 85.6597 86.6288 87.7051 86.6288C89.7192 86.5659 91.4657 87.1795 92.9447 88.4697C94.4237 89.76 95.1947 91.4278 95.2577 93.4733C95.3206 95.4243 94.6597 97.1236 93.2751 98.5712C91.922 100.019 90.144 100.774 87.9412 100.837C85.9586 100.9 84.2121 100.302 82.7016 99.0432C81.2226 97.7845 80.4516 96.0852 80.3887 93.9453ZM129.669 119.718C127.844 119.404 126.349 119.246 125.184 119.246C120.433 119.12 116.672 120.898 113.903 124.58L108.003 158H94.6912L103.565 106.926L116.074 106.879L114.847 113.11C118.057 108.295 122.022 105.888 126.742 105.888C128.064 105.888 129.606 106.108 131.368 106.549L129.669 119.718ZM157.566 158C157.157 156.71 156.984 155.168 157.047 153.374C153.207 157.213 148.865 159.07 144.019 158.944C139.55 158.881 135.837 157.434 132.879 154.601C129.952 151.738 128.583 148.213 128.772 144.028C128.992 138.458 131.321 134.194 135.758 131.236C140.227 128.246 146.206 126.752 153.695 126.752L159.926 126.846L160.587 123.778C160.776 122.739 160.823 121.748 160.728 120.804C160.571 119.325 160.005 118.176 159.029 117.358C158.085 116.508 156.826 116.068 155.253 116.036C153.176 115.973 151.414 116.493 149.966 117.594C148.519 118.664 147.59 120.222 147.181 122.267L133.823 122.314C134.043 117.437 136.277 113.487 140.525 110.466C144.805 107.414 150.076 105.919 156.339 105.982C162.129 106.108 166.66 107.839 169.933 111.174C173.206 114.479 174.575 118.743 174.04 123.967L170.122 148.418L169.886 151.439C169.823 153.673 170.09 155.561 170.688 157.103L170.641 158H157.566ZM147.323 148.607C151.162 148.732 154.513 147.065 157.377 143.603L159.029 134.776L154.403 134.729C149.494 134.855 145.954 136.349 143.783 139.213C142.996 140.252 142.508 141.526 142.319 143.037C142.067 144.736 142.414 146.089 143.358 147.096C144.333 148.072 145.655 148.575 147.323 148.607ZM204.155 105.935C209.442 106.061 213.486 108.201 216.287 112.355L218.458 106.879L230.353 106.926L218.08 177.637H204.675L209.442 153.516C205.886 157.26 201.748 159.07 197.028 158.944C193.849 158.913 191.064 158.079 188.673 156.442C186.281 154.806 184.424 152.446 183.103 149.362C181.813 146.246 181.104 142.832 180.979 139.119C180.884 137.136 180.931 135.201 181.12 133.313L181.403 131.236C182.159 125.949 183.606 121.323 185.746 117.358C187.917 113.393 190.561 110.482 193.676 108.625C196.823 106.737 200.316 105.84 204.155 105.935ZM194.29 139.402C194.605 145.003 196.839 147.851 200.993 147.946C204.738 148.072 207.947 146.419 210.622 142.989L214.493 121.748C213.266 118.695 210.795 117.106 207.082 116.98C203.746 116.886 200.993 118.208 198.821 120.946C196.65 123.652 195.25 127.444 194.62 132.321C194.306 135.563 194.195 137.923 194.29 139.402Z" fill="#AD0000"/>
</svg>
